<svg width="20" height="18" viewBox="0 0 20 18" fill="none" xmlns="http://www.w3.org/2000/svg">
<path d="M14.4821 1.00919C15.0894 0.993193 15.6766 1.10518 16.2438 1.34517C16.8111 1.58515 17.3105 1.92513 17.7419 2.3651C18.1733 2.80507 18.4969 3.31303 18.7126 3.88899C18.9283 4.46495 19.0202 5.05691 18.9883 5.66487C18.9883 6.36882 18.8484 7.04877 18.5688 7.70472C18.2892 8.36068 17.8937 8.93664 17.3824 9.4326L10 16.6081L2.61764 9.4326C2.1063 8.93664 1.71082 8.36068 1.43118 7.70472C1.15155 7.04877 1.01173 6.36882 1.01173 5.66487C0.979774 5.05691 1.07165 4.46495 1.28737 3.88899C1.50309 3.31303 1.82667 2.80507 2.25811 2.3651C2.68954 1.92513 3.18889 1.58515 3.75615 1.34517C4.32341 1.10518 4.91064 0.993193 5.51785 1.00919C6.23691 1.00919 6.92402 1.16518 7.57916 1.47716C8.2343 1.78914 8.78559 2.22511 9.233 2.78507L10 3.769L10.791 2.78507C11.2384 2.22511 11.7857 1.78914 12.4328 1.47716C13.08 1.16518 13.7631 1.00919 14.4821 1.00919ZM14.4821 0.00126266C13.6033 0.00126266 12.7724 0.189249 11.9894 0.565224C11.2064 0.941196 10.5433 1.47316 10 2.16111C9.45671 1.47316 8.79357 0.941196 8.0106 0.565224C7.22762 0.189249 6.3967 0.00126266 5.51785 0.00126266C4.76683 -0.0147362 4.04777 0.121254 3.36067 0.409235C2.67356 0.697214 2.07035 1.10918 1.55103 1.64515C1.03171 2.18111 0.636222 2.79707 0.364577 3.49302C0.0929313 4.18897 -0.0269122 4.91292 0.00504604 5.66487C0.00504604 6.51281 0.172827 7.32475 0.508389 8.10069C0.843951 8.87664 1.31534 9.56059 1.92254 10.1526L10 18L18.1014 10.1526C18.7086 9.56059 19.176 8.87664 19.5036 8.10069C19.8312 7.32475 19.995 6.51281 19.995 5.66487C20.0269 4.91292 19.9071 4.18897 19.6354 3.49302C19.3638 2.79707 18.9683 2.18111 18.449 1.64515C17.9296 1.10918 17.3264 0.697214 16.6393 0.409235C15.9522 0.121254 15.2332 -0.0147362 14.4821 0.00126266Z" fill="black"/>
</svg>
